<svg width="28" height="28" viewBox="0 0 28 28" fill="none" xmlns="http://www.w3.org/2000/svg">
<path d="M22.1667 3.5H5.83333C4.54467 3.5 3.5 4.54467 3.5 5.83333V22.1667C3.5 23.4553 4.54467 24.5 5.83333 24.5H22.1667C23.4553 24.5 24.5 23.4553 24.5 22.1667V5.83333C24.5 4.54467 23.4553 3.5 22.1667 3.5Z" stroke="#EA1E63" stroke-width="2" stroke-linecap="round" stroke-linejoin="round"/>
<path d="M10.4998 12.8332C11.7885 12.8332 12.8332 11.7885 12.8332 10.4998C12.8332 9.21117 11.7885 8.1665 10.4998 8.1665C9.21117 8.1665 8.1665 9.21117 8.1665 10.4998C8.1665 11.7885 9.21117 12.8332 10.4998 12.8332Z" stroke="#EA1E63" stroke-width="2" stroke-linecap="round" stroke-linejoin="round"/>
<path d="M24.5 17.4998L20.8997 13.8995C20.4621 13.462 19.8687 13.2163 19.25 13.2163C18.6313 13.2163 18.0379 13.462 17.6003 13.8995L7 24.4998" stroke="#EA1E63" stroke-width="2" stroke-linecap="round" stroke-linejoin="round"/>
</svg>
